HIERARCHY
ROOT Hips
{
	OFFSET -3.958830 18.904000 13.208200
	CHANNELS 6 Xposition Yposition Zposition Zrotation Yrotation Xrotation 
	JOINT LHipJoint
	{
		OFFSET 0.000000 0.000000 0.000000
		CHANNELS 3 Zrotation Yrotation Xrotation
		JOINT LeftUpLeg
		{
			OFFSET 1.800000 -1.400000 0.085000
			CHANNELS 3 Zrotation Yrotation Xrotation
			JOINT LeftLeg
			{
				OFFSET 2.215000 -6.000000 0.000000
				CHANNELS 3 Zrotation Yrotation Xrotation
				JOINT LeftFoot
				{
					OFFSET 2.500000 -6.900000 0.000000
					CHANNELS 3 Zrotation Yrotation Xrotation
					JOINT LeftToeBase
					{
						OFFSET 0.200000 -0.500000 1.950000
						CHANNELS 3 Zrotation Yrotation Xrotation
						End Site
						{
							OFFSET 0.000000 0.000000 0.000000
						}
					}
				}
			}
		}
	}
	JOINT RHipJoint
	{
		OFFSET 0.000000 0.000000 0.000000
		CHANNELS 3 Zrotation Yrotation Xrotation
		JOINT RightUpLeg
		{
			OFFSET -1.800000 -1.400000 0.085000
			CHANNELS 3 Zrotation Yrotation Xrotation
			JOINT RightLeg
			{
				OFFSET -2.215000 -6.000000 0.000000
				CHANNELS 3 Zrotation Yrotation Xrotation
				JOINT RightFoot
				{
					OFFSET -2.500000 -6.900000 0.000000
					CHANNELS 3 Zrotation Yrotation Xrotation
					JOINT RightToeBase
					{
						OFFSET -0.200000 -0.500000 1.950000
						CHANNELS 3 Zrotation Yrotation Xrotation
						End Site
						{
							OFFSET 0.000000 0.000000 0.000000
						}
					}
				}
			}
		}
	}
	JOINT LowerBack
	{
		OFFSET 0.000000 0.000000 0.000000
		CHANNELS 3 Zrotation Yrotation Xrotation
		JOINT Spine
		{
			OFFSET -0.087000 1.940000 -0.288900
			CHANNELS 3 Zrotation Yrotation Xrotation
			JOINT Spine1
			{
				OFFSET 0.000000 1.950000 0.060000
				CHANNELS 3 Zrotation Yrotation Xrotation
				JOINT Neck
				{
					OFFSET 0.000000 0.000000 0.000000
					CHANNELS 3 Zrotation Yrotation Xrotation
					JOINT Neck1
					{
						OFFSET 0.000000 1.600000 0.340000
						CHANNELS 3 Zrotation Yrotation Xrotation
						JOINT Head
						{
							OFFSET 0.000000 1.667000 -0.240000
							CHANNELS 3 Zrotation Yrotation Xrotation
							End Site
							{
								OFFSET 0.000000 0.000000 0.000000
							}
						}
					}
				}
				JOINT LeftShoulder
				{
					OFFSET 0.000000 0.000000 0.000000
					CHANNELS 3 Zrotation Yrotation Xrotation
					JOINT LeftArm
					{
						OFFSET 2.700000 1.550000 -0.730000
						CHANNELS 3 Zrotation Yrotation Xrotation
						JOINT LeftForeArm
						{
							OFFSET 5.450000 0.000000 0.000000
							CHANNELS 3 Zrotation Yrotation Xrotation
							JOINT LeftHand
							{
								OFFSET 3.450000 0.000000 0.000000
								CHANNELS 3 Zrotation Yrotation Xrotation
								JOINT LeftHandIndex1
								{
									OFFSET 0.750000 0.000000 0.000000
									CHANNELS 3 Zrotation Yrotation Xrotation
									End Site
									{
										OFFSET 0.000000 0.000000 0.000000
									}
								}
							}
						}
					}
				}
				JOINT RightShoulder
				{
					OFFSET 0.000000 0.000000 0.000000
					CHANNELS 3 Zrotation Yrotation Xrotation
					JOINT RightArm
					{
						OFFSET -2.700000 1.550000 -0.730000
						CHANNELS 3 Zrotation Yrotation Xrotation
						JOINT RightForeArm
						{
							OFFSET -5.450000 0.000000 0.000000
							CHANNELS 3 Zrotation Yrotation Xrotation
							JOINT RightHand
							{
								OFFSET -3.450000 0.000000 0.000000
								CHANNELS 3 Zrotation Yrotation Xrotation
								JOINT RightHandIndex1
								{
									OFFSET -0.750000 0.000000 0.000000
									CHANNELS 3 Zrotation Yrotation Xrotation
									End Site
									{
										OFFSET 0.000000 0.000000 0.000000
									}
								}
							}
						}
					}
				}
			}
		}
	}
}
MOTION
Frames: 9
Frame Time: 0.016667
-0.565340 16.233750 -0.796360 -2.372358 -18.144880 9.487444 -14.688868 12.381526 2.380594 7.527173 -2.068892 -15.483144 -2.964971 4.145028 10.397030 -0.447298 3.580452 3.728238 -0.140590 -0.326890 -0.362990 18.706416 -11.730186 3.110438 -6.453920 2.698411 -23.922991 6.771643 -3.718774 9.218816 0.552934 -3.336350 3.485753 0.107260 1.024960 0.227500 -4.702629 2.104836 -6.489508 11.628979 -1.512218 1.238638 -0.678165 -2.024572 -4.099120 1.652188 0.840243 -3.481815 3.853811 -3.649562 15.538851 -6.451750 -2.884630 11.204450 -0.217819 21.230704 -3.786726 -51.532673 5.116683 -7.197572 47.713147 -45.878517 -12.874376 -4.678822 3.278562 -0.458030 0.883890 -0.789630 0.328620 -4.406166 -17.535291 2.681517 47.139572 11.083411 1.337819 -100.444921 42.029854 -50.550714 1.919450 -2.081232 -0.344200 0.139120 0.131510 0.132590 
-0.565400 16.234580 -0.797030 -2.392843 -18.158601 9.493988 -14.689262 12.385738 2.382366 7.540201 -2.070671 -15.491100 -2.945747 4.136996 10.382097 -0.448668 3.578525 3.728225 -0.137470 -0.324170 -0.361750 18.705299 -11.728283 3.111639 -6.425201 2.707871 -23.942568 6.748506 -3.713803 9.239993 0.552370 -3.332586 3.486269 0.108650 1.024380 0.228510 -4.699645 2.094696 -6.494755 11.679336 -1.530374 1.267823 -0.762954 -2.027584 -4.075121 1.717918 0.797802 -3.513363 3.783569 -3.616432 15.536969 -6.425710 -2.915270 11.159970 -0.171874 21.261640 -3.825158 -51.563660 5.083160 -7.172571 47.789659 -45.830678 -12.876125 -4.678279 3.279386 -0.457150 0.882880 -0.789170 0.329050 -4.590235 -17.509177 2.778790 46.758353 11.001911 1.349758 -100.427319 42.256090 -50.717150 1.919529 -2.076731 -0.342940 0.138830 0.131180 0.132650 
-0.565030 16.236420 -0.798010 -2.445656 -18.143333 9.484011 -14.688643 12.392906 2.383462 7.592341 -2.070393 -15.501102 -2.918653 4.129365 10.382138 -0.453135 3.581240 3.727506 -0.130690 -0.318590 -0.361240 18.704557 -11.726805 3.112952 -6.373823 2.714914 -23.915925 6.727540 -3.708100 9.248205 0.549888 -3.330621 3.487379 0.113130 1.026140 0.229820 -4.698800 2.079709 -6.502809 11.816119 -1.565702 1.311030 -0.942928 -2.035604 -3.977052 1.832014 0.713012 -3.568667 3.645735 -3.589142 15.538166 -6.346370 -3.049570 11.055610 -0.090937 21.283950 -3.886135 -51.613697 4.982573 -7.130318 47.910298 -45.773658 -12.908212 -4.675774 3.279346 -0.454080 0.881300 -0.788780 0.333150 -4.906467 -17.433369 2.952024 45.990309 10.854855 1.359026 -100.402418 42.630822 -50.992339 1.917912 -2.069194 -0.342880 0.142200 0.130450 0.133570 
-0.564660 16.238340 -0.799460 -2.460022 -18.109153 9.445893 -14.691134 12.406631 2.386903 7.625658 -2.067893 -15.491703 -2.904701 4.124880 10.376432 -0.454846 3.583862 3.726949 -0.121210 -0.309030 -0.359470 18.700287 -11.721032 3.111637 -6.348988 2.712626 -23.881264 6.690568 -3.699319 9.269662 0.547151 -3.327823 3.488141 0.119480 1.027260 0.230380 -4.688369 2.043098 -6.513803 11.914266 -1.640388 1.375761 -1.190552 -2.074850 -3.833649 2.000611 0.606707 -3.650643 3.464647 -3.525029 15.553245 -6.214170 -3.203220 10.941990 0.025839 21.301166 -3.960204 -51.575583 4.877752 -7.080868 47.990270 -45.656672 -12.903521 -4.671075 3.281772 -0.452510 0.878400 -0.787790 0.338270 -5.355039 -17.326300 3.191420 44.845810 10.634324 1.382107 -100.220872 43.304654 -51.349301 1.917880 -2.053622 -0.341300 0.145430 0.127180 0.136110 
-0.564110 16.239780 -0.801020 -2.487113 -18.064543 9.388623 -14.693923 12.425260 2.389067 7.680083 -2.058796 -15.476334 -2.883852 4.127058 10.409469 -0.460108 3.589741 3.724808 -0.110300 -0.296470 -0.359250 18.695423 -11.714996 3.109099 -6.301006 2.708247 -23.822366 6.614755 -3.681680 9.290651 0.545745 -3.323279 3.492036 0.129510 1.028320 0.227260 -4.676634 1.997326 -6.525567 12.057822 -1.724919 1.449287 -1.523696 -2.114137 -3.630917 2.214788 0.479875 -3.744566 3.253264 -3.500411 15.565775 -6.071820 -3.420740 10.790070 0.136416 21.289659 -4.043314 -51.432263 4.747416 -7.019850 48.067902 -45.545980 -12.914412 -4.664517 3.282229 -0.450420 0.875160 -0.788510 0.344200 -5.882509 -17.175272 3.472278 43.385421 10.302033 1.357344 -99.843755 44.180229 -51.646780 1.914469 -2.030465 -0.342010 0.151840 0.123860 0.138010 
-0.563820 16.240070 -0.802630 -2.517641 -17.970539 9.340189 -14.698508 12.444527 2.390339 7.753338 -2.052256 -15.490033 -2.882450 4.137645 10.464083 -0.464052 3.598029 3.720695 -0.095860 -0.278020 -0.356600 18.690106 -11.703581 3.104068 -6.243967 2.703566 -23.754619 6.537515 -3.658986 9.308905 0.545494 -3.320682 3.494210 0.143880 1.028900 0.224300 -4.663412 1.938875 -6.534080 12.241461 -1.848631 1.488288 -1.931724 -2.192211 -3.384823 2.461004 0.325246 -3.808605 3.010997 -3.508239 15.507799 -5.960680 -3.658040 10.621250 0.229340 21.307422 -4.147762 -51.206700 4.597585 -6.951842 48.164078 -45.443630 -12.947042 -4.660583 3.287096 -0.454780 0.873820 -0.791000 0.349790 -6.442386 -17.049834 3.735167 41.648080 9.879167 1.308554 -99.216459 45.312922 -51.851262 1.909539 -2.002140 -0.340020 0.156940 0.118620 0.140970 
-0.563660 16.239810 -0.804590 -2.504463 -17.871065 9.281613 -14.703774 12.464522 2.391567 7.768260 -2.045757 -15.504328 -2.844504 4.136289 10.505145 -0.469720 3.608414 3.719805 -0.091900 -0.270540 -0.367490 18.684505 -11.693607 3.096354 -6.209648 2.697134 -23.719322 6.417271 -3.638251 9.376193 0.551984 -3.324352 3.496695 0.154620 1.041970 0.222050 -4.649306 1.879819 -6.539572 12.401182 -1.994186 1.504797 -2.433689 -2.289504 -3.080305 2.723436 0.166096 -3.889894 2.766477 -3.492371 15.404778 -5.804630 -3.931430 10.622410 0.356334 21.288908 -4.235220 -50.925122 4.466170 -6.899406 48.257062 -45.302870 -12.980316 -4.666022 3.293449 -0.464190 0.880170 -0.802580 0.356570 -7.064841 -16.876978 4.028319 39.824535 9.381285 1.209673 -98.321233 46.632268 -51.923083 1.899372 -1.966520 -0.342540 0.164040 0.120970 0.147400 
-0.563550 16.238540 -0.807570 -2.465133 -17.780153 9.238576 -14.710968 12.479436 2.392639 7.765405 -2.041883 -15.534060 -2.839338 4.138297 10.524190 -0.476251 3.623447 3.720562 -0.088350 -0.262520 -0.380000 18.678753 -11.679402 3.086919 -6.212346 2.694749 -23.723430 6.318295 -3.619713 9.455965 0.560230 -3.333273 3.496334 0.168700 1.060650 0.220220 -4.634030 1.820745 -6.540049 12.535276 -2.127339 1.473099 -2.988943 -2.378187 -2.687730 3.000288 -0.001331 -3.968879 2.526692 -3.509150 15.210185 -5.673760 -4.226910 10.656200 0.461662 21.230923 -4.304860 -50.607517 4.321789 -6.839542 48.474082 -45.183391 -13.083941 -4.675806 3.299611 -0.478370 0.891010 -0.817800 0.365380 -7.678041 -16.666632 4.311338 37.900171 8.771428 1.058338 -97.233873 48.160255 -51.942344 1.883113 -1.924228 -0.347080 0.173550 0.123150 0.155580 
-0.563330 16.238340 -0.810170 -2.452035 -17.705042 9.197169 -14.717980 12.494478 2.396457 7.802933 -2.029962 -15.534368 -2.882583 4.147087 10.475111 -0.474325 3.637889 3.722483 -0.087840 -0.256840 -0.396100 18.672414 -11.664581 3.078311 -6.193592 2.693135 -23.703828 6.236830 -3.605873 9.534930 0.568465 -3.342500 3.498332 0.177830 1.080220 0.218600 -4.617383 1.759858 -6.546257 12.683377 -2.258351 1.453802 -3.545584 -2.453657 -2.334070 3.289436 -0.159678 -4.065473 2.290889 -3.521684 15.076877 -5.516840 -4.528600 10.776450 0.536221 21.143625 -4.345507 -50.293902 4.226746 -6.763048 48.786402 -45.070401 -13.204415 -4.683823 3.306593 -0.495180 0.901460 -0.833090 0.374890 -8.291678 -16.412293 4.573615 35.852035 8.127256 0.869413 -95.711827 49.948779 -51.668694 1.861765 -1.866568 -0.348280 0.181150 0.125370 0.166700 
